<mxfile host="65bd71144e">
    <diagram id="GLQVXQ_oIVHkKkS7ZpNI" name="第 1 页">
        <mxGraphModel dx="928" dy="459" grid="1" gridSize="10" guides="1" tooltips="1" connect="1" arrows="1" fold="1" page="1" pageScale="1" pageWidth="1169" pageHeight="827" math="0" shadow="0">
            <root>
                <mxCell id="0"/>
                <mxCell id="1" parent="0"/>
                <mxCell id="10" value="" style="group" vertex="1" connectable="0" parent="1">
                    <mxGeometry x="200" y="240" width="160" height="90" as="geometry"/>
                </mxCell>
                <mxCell id="11" value="" style="group;fillColor=#eeeeee;strokeColor=#36393d;container=0;" vertex="1" connectable="0" parent="10">
                    <mxGeometry width="160" height="90" as="geometry"/>
                </mxCell>
                <mxCell id="12" value="" style="whiteSpace=wrap;html=1;fillColor=#647687;strokeColor=#314354;fontColor=#ffffff;" vertex="1" parent="10">
                    <mxGeometry x="0.6374501992033016" width="159.3625498007967" height="90" as="geometry"/>
                </mxCell>
                <mxCell id="13" value="" style="edgeStyle=none;orthogonalLoop=1;jettySize=auto;html=1;endArrow=none;endFill=0;entryX=1.004;entryY=0.341;entryDx=0;entryDy=0;entryPerimeter=0;rounded=0;" edge="1" parent="10" target="12">
                    <mxGeometry width="100" relative="1" as="geometry">
                        <mxPoint x="0.6374501992031808" y="30.22999999999996" as="sourcePoint"/>
                        <mxPoint x="128.00000000000003" y="30" as="targetPoint"/>
                        <Array as="points"/>
                    </mxGeometry>
                </mxCell>
                <mxCell id="14" value="" style="edgeStyle=none;orthogonalLoop=1;jettySize=auto;html=1;endArrow=none;endFill=0;entryX=1.004;entryY=0.341;entryDx=0;entryDy=0;entryPerimeter=0;rounded=0;" edge="1" parent="10">
                    <mxGeometry width="100" relative="1" as="geometry">
                        <mxPoint y="44.76999999999998" as="sourcePoint"/>
                        <mxPoint x="160" y="45.23000000000002" as="targetPoint"/>
                        <Array as="points"/>
                    </mxGeometry>
                </mxCell>
                <mxCell id="15" value="UndeadMonster" style="text;html=1;align=center;verticalAlign=middle;resizable=0;points=[];autosize=1;strokeColor=none;fillColor=none;" vertex="1" parent="10">
                    <mxGeometry x="21.567065073041167" width="110" height="30" as="geometry"/>
                </mxCell>
                <mxCell id="17" value="+UndeadMonster()&lt;br&gt;&lt;i&gt;+clone()&lt;/i&gt;" style="text;html=1;align=center;verticalAlign=middle;resizable=0;points=[];autosize=1;strokeColor=none;fillColor=none;" vertex="1" parent="10">
                    <mxGeometry x="16.254980079681275" y="45" width="120" height="40" as="geometry"/>
                </mxCell>
                <mxCell id="18" value="" style="group" vertex="1" connectable="0" parent="1">
                    <mxGeometry x="400.6" y="240" width="159.4" height="90" as="geometry"/>
                </mxCell>
                <mxCell id="19" value="" style="group;fillColor=#eeeeee;strokeColor=#36393d;container=0;" vertex="1" connectable="0" parent="18">
                    <mxGeometry width="159.4" height="90" as="geometry"/>
                </mxCell>
                <mxCell id="20" value="" style="whiteSpace=wrap;html=1;fillColor=#647687;strokeColor=#314354;fontColor=#ffffff;" vertex="1" parent="18">
                    <mxGeometry x="0.6350597609562891" width="158.7649402390437" height="90" as="geometry"/>
                </mxCell>
                <mxCell id="21" value="" style="edgeStyle=none;orthogonalLoop=1;jettySize=auto;html=1;endArrow=none;endFill=0;entryX=1.004;entryY=0.341;entryDx=0;entryDy=0;entryPerimeter=0;rounded=0;" edge="1" parent="18" target="20">
                    <mxGeometry width="100" relative="1" as="geometry">
                        <mxPoint x="0.6350597609561689" y="30.22999999999996" as="sourcePoint"/>
                        <mxPoint x="127.52000000000002" y="30" as="targetPoint"/>
                        <Array as="points"/>
                    </mxGeometry>
                </mxCell>
                <mxCell id="22" value="" style="edgeStyle=none;orthogonalLoop=1;jettySize=auto;html=1;endArrow=none;endFill=0;entryX=1.004;entryY=0.341;entryDx=0;entryDy=0;entryPerimeter=0;rounded=0;" edge="1" parent="18">
                    <mxGeometry width="100" relative="1" as="geometry">
                        <mxPoint y="44.76999999999998" as="sourcePoint"/>
                        <mxPoint x="159.4" y="45.23000000000002" as="targetPoint"/>
                        <Array as="points"/>
                    </mxGeometry>
                </mxCell>
                <mxCell id="23" value="ElementMonster" style="text;html=1;align=center;verticalAlign=middle;resizable=0;points=[];autosize=1;strokeColor=none;fillColor=none;" vertex="1" parent="18">
                    <mxGeometry x="21.486188579017263" width="110" height="30" as="geometry"/>
                </mxCell>
                <mxCell id="24" value="+ElementMonster()&lt;br&gt;&lt;i&gt;+clone()&lt;/i&gt;" style="text;html=1;align=center;verticalAlign=middle;resizable=0;points=[];autosize=1;strokeColor=none;fillColor=none;" vertex="1" parent="18">
                    <mxGeometry x="11.194023904382473" y="45" width="130" height="40" as="geometry"/>
                </mxCell>
                <mxCell id="25" value="" style="group" vertex="1" connectable="0" parent="1">
                    <mxGeometry x="600" y="240" width="160" height="90" as="geometry"/>
                </mxCell>
                <mxCell id="26" value="" style="group;fillColor=#eeeeee;strokeColor=#36393d;container=0;" vertex="1" connectable="0" parent="25">
                    <mxGeometry width="160" height="90" as="geometry"/>
                </mxCell>
                <mxCell id="27" value="" style="whiteSpace=wrap;html=1;fillColor=#647687;strokeColor=#314354;fontColor=#ffffff;" vertex="1" parent="25">
                    <mxGeometry x="0.6374501992033016" width="159.3625498007967" height="90" as="geometry"/>
                </mxCell>
                <mxCell id="28" value="" style="edgeStyle=none;orthogonalLoop=1;jettySize=auto;html=1;endArrow=none;endFill=0;entryX=1.004;entryY=0.341;entryDx=0;entryDy=0;entryPerimeter=0;rounded=0;" edge="1" parent="25" target="27">
                    <mxGeometry width="100" relative="1" as="geometry">
                        <mxPoint x="0.6374501992031808" y="30.22999999999996" as="sourcePoint"/>
                        <mxPoint x="128.00000000000003" y="30" as="targetPoint"/>
                        <Array as="points"/>
                    </mxGeometry>
                </mxCell>
                <mxCell id="29" value="" style="edgeStyle=none;orthogonalLoop=1;jettySize=auto;html=1;endArrow=none;endFill=0;entryX=1.004;entryY=0.341;entryDx=0;entryDy=0;entryPerimeter=0;rounded=0;" edge="1" parent="25">
                    <mxGeometry width="100" relative="1" as="geometry">
                        <mxPoint y="44.76999999999998" as="sourcePoint"/>
                        <mxPoint x="160" y="45.23000000000002" as="targetPoint"/>
                        <Array as="points"/>
                    </mxGeometry>
                </mxCell>
                <mxCell id="30" value="MechanicMonster" style="text;html=1;align=center;verticalAlign=middle;resizable=0;points=[];autosize=1;strokeColor=none;fillColor=none;" vertex="1" parent="25">
                    <mxGeometry x="16.567065073041167" width="120" height="30" as="geometry"/>
                </mxCell>
                <mxCell id="31" value="+MechanicMonster()&lt;br&gt;&lt;i&gt;+clone()&lt;/i&gt;" style="text;html=1;align=center;verticalAlign=middle;resizable=0;points=[];autosize=1;strokeColor=none;fillColor=none;" vertex="1" parent="25">
                    <mxGeometry x="11.254980079681275" y="45" width="130" height="40" as="geometry"/>
                </mxCell>
                <mxCell id="4" value="" style="whiteSpace=wrap;html=1;fillColor=#647687;strokeColor=#314354;fontColor=#ffffff;" vertex="1" parent="1">
                    <mxGeometry x="400.6" y="40" width="159.4" height="160" as="geometry"/>
                </mxCell>
                <mxCell id="5" value="" style="edgeStyle=none;orthogonalLoop=1;jettySize=auto;html=1;endArrow=none;endFill=0;entryX=1;entryY=0.25;entryDx=0;entryDy=0;rounded=0;exitX=0;exitY=0.25;exitDx=0;exitDy=0;" edge="1" parent="1" target="4" source="4">
                    <mxGeometry width="100" relative="1" as="geometry">
                        <mxPoint x="400.6" y="140.22999999999996" as="sourcePoint"/>
                        <mxPoint x="520.4800000000001" y="140" as="targetPoint"/>
                        <Array as="points"/>
                    </mxGeometry>
                </mxCell>
                <mxCell id="6" value="" style="edgeStyle=none;orthogonalLoop=1;jettySize=auto;html=1;endArrow=none;endFill=0;entryX=0.999;entryY=0.624;entryDx=0;entryDy=0;entryPerimeter=0;rounded=0;" edge="1" parent="1" target="4">
                    <mxGeometry width="100" relative="1" as="geometry">
                        <mxPoint x="400.6" y="139.99999999999997" as="sourcePoint"/>
                        <mxPoint x="551.2000000000002" y="140.46" as="targetPoint"/>
                        <Array as="points"/>
                    </mxGeometry>
                </mxCell>
                <mxCell id="7" value="Monster" style="text;html=1;align=center;verticalAlign=middle;resizable=0;points=[];autosize=1;strokeColor=none;fillColor=none;" vertex="1" parent="1">
                    <mxGeometry x="440.3" y="50" width="70" height="30" as="geometry"/>
                </mxCell>
                <mxCell id="8" value="&lt;div style=&quot;text-align: left;&quot;&gt;&lt;span style=&quot;background-color: initial;&quot;&gt;#mlife&lt;/span&gt;&lt;/div&gt;&lt;div style=&quot;text-align: left;&quot;&gt;&lt;span style=&quot;background-color: initial;&quot;&gt;#mmagic&lt;/span&gt;&lt;/div&gt;&lt;div style=&quot;text-align: left;&quot;&gt;&lt;span style=&quot;background-color: initial;&quot;&gt;#mattack&lt;/span&gt;&lt;/div&gt;" style="text;html=1;align=center;verticalAlign=middle;resizable=0;points=[];autosize=1;strokeColor=none;fillColor=none;" vertex="1" parent="1">
                    <mxGeometry x="410" y="80" width="70" height="60" as="geometry"/>
                </mxCell>
                <mxCell id="9" value="&lt;div style=&quot;text-align: left;&quot;&gt;+Monster()&lt;/div&gt;&lt;span style=&quot;&quot;&gt;&lt;i&gt;&lt;div style=&quot;text-align: left;&quot;&gt;&lt;span style=&quot;background-color: initial;&quot;&gt;+~Monster()&lt;/span&gt;&lt;/div&gt;&lt;div style=&quot;text-align: left;&quot;&gt;&lt;span style=&quot;background-color: initial;&quot;&gt;+clone()&lt;/span&gt;&lt;/div&gt;&lt;/i&gt;&lt;/span&gt;" style="text;html=1;align=center;verticalAlign=middle;resizable=0;points=[];autosize=1;strokeColor=none;fillColor=none;" vertex="1" parent="1">
                    <mxGeometry x="400" y="140" width="90" height="60" as="geometry"/>
                </mxCell>
                <mxCell id="56" style="edgeStyle=none;html=1;exitX=0.526;exitY=-0.005;exitDx=0;exitDy=0;exitPerimeter=0;" edge="1" parent="1" source="23" target="4">
                    <mxGeometry relative="1" as="geometry">
                        <Array as="points">
                            <mxPoint x="480" y="230"/>
                        </Array>
                    </mxGeometry>
                </mxCell>
                <mxCell id="58" style="edgeStyle=orthogonalEdgeStyle;html=1;endArrow=none;endFill=0;rounded=0;" edge="1" parent="1" source="15" target="30">
                    <mxGeometry relative="1" as="geometry">
                        <mxPoint x="480" y="220" as="targetPoint"/>
                        <Array as="points">
                            <mxPoint x="277" y="220"/>
                            <mxPoint x="680" y="220"/>
                        </Array>
                    </mxGeometry>
                </mxCell>
                <mxCell id="59" value="返回自身的副本(克隆)" style="ellipse;shape=cloud;whiteSpace=wrap;html=1;" vertex="1" parent="1">
                    <mxGeometry x="390" y="360" width="170" height="70" as="geometry"/>
                </mxCell>
                <mxCell id="60" style="edgeStyle=orthogonalEdgeStyle;rounded=0;html=1;entryX=0.625;entryY=0.2;entryDx=0;entryDy=0;entryPerimeter=0;endArrow=classic;endFill=1;dashed=1;" edge="1" parent="1" source="20" target="59">
                    <mxGeometry relative="1" as="geometry">
                        <Array as="points">
                            <mxPoint x="496" y="345"/>
                        </Array>
                    </mxGeometry>
                </mxCell>
                <mxCell id="61" style="edgeStyle=orthogonalEdgeStyle;rounded=0;html=1;entryX=0.96;entryY=0.7;entryDx=0;entryDy=0;entryPerimeter=0;dashed=1;endArrow=classic;endFill=1;" edge="1" parent="1" source="27" target="59">
                    <mxGeometry relative="1" as="geometry">
                        <Array as="points">
                            <mxPoint x="680" y="409"/>
                        </Array>
                    </mxGeometry>
                </mxCell>
                <mxCell id="62" style="edgeStyle=orthogonalEdgeStyle;rounded=0;html=1;entryX=0.07;entryY=0.4;entryDx=0;entryDy=0;entryPerimeter=0;dashed=1;endArrow=classic;endFill=1;" edge="1" parent="1" source="12" target="59">
                    <mxGeometry relative="1" as="geometry">
                        <Array as="points">
                            <mxPoint x="280" y="388"/>
                        </Array>
                    </mxGeometry>
                </mxCell>
            </root>
        </mxGraphModel>
    </diagram>
</mxfile>